<svg width="60" height="67" viewBox="0 0 60 67" fill="none" xmlns="http://www.w3.org/2000/svg">
    <path
        d="M45.12 66.84L36.64 56.68C34.2933 57.2667 31.8933 57.56 29.44 57.56C24.2133 57.56 19.4133 56.3333 15.04 53.88C10.6667 51.4267 7.2 48.04 4.64 43.72C2.08 39.3467 0.8 34.4133 0.8 28.92C0.8 23.48 2.08 18.6 4.64 14.28C7.2 9.90666 10.6667 6.49333 15.04 4.04C19.4133 1.58666 24.2133 0.36 29.44 0.36C34.72 0.36 39.52 1.58666 43.84 4.04C48.2133 6.49333 51.6533 9.90666 54.16 14.28C56.72 18.6 58 23.48 58 28.92C58 33.88 56.9333 38.4133 54.8 42.52C52.72 46.5733 49.8667 49.88 46.24 52.44L59.04 66.84H45.12ZM12.32 28.92C12.32 32.6533 13.04 35.9333 14.48 38.76C15.92 41.5867 17.92 43.7733 20.48 45.32C23.0933 46.8133 26.08 47.56 29.44 47.56C32.8 47.56 35.76 46.8133 38.32 45.32C40.88 43.7733 42.88 41.5867 44.32 38.76C45.76 35.9333 46.48 32.6533 46.48 28.92C46.48 25.1867 45.76 21.9333 44.32 19.16C42.88 16.3333 40.88 14.1733 38.32 12.68C35.76 11.1867 32.8 10.44 29.44 10.44C26.08 10.44 23.0933 11.1867 20.48 12.68C17.92 14.1733 15.92 16.3333 14.48 19.16C13.04 21.9333 12.32 25.1867 12.32 28.92Z"
        fill="#0009F6" />
</svg>