<svg width="230" height="120" viewBox="0 0 230 120" fill="none" xmlns="http://www.w3.org/2000/svg">
<path d="M47.12 97.84L38.64 87.68C36.2933 88.2667 33.8933 88.56 31.44 88.56C26.2133 88.56 21.4133 87.3333 17.04 84.88C12.6667 82.4267 9.2 79.04 6.64 74.72C4.08 70.3467 2.8 65.4133 2.8 59.92C2.8 54.48 4.08 49.6 6.64 45.28C9.2 40.9067 12.6667 37.4933 17.04 35.04C21.4133 32.5867 26.2133 31.36 31.44 31.36C36.72 31.36 41.52 32.5867 45.84 35.04C50.2133 37.4933 53.6533 40.9067 56.16 45.28C58.72 49.6 60 54.48 60 59.92C60 64.88 58.9333 69.4133 56.8 73.52C54.72 77.5733 51.8667 80.88 48.24 83.44L61.04 97.84H47.12ZM14.32 59.92C14.32 63.6533 15.04 66.9333 16.48 69.76C17.92 72.5867 19.92 74.7733 22.48 76.32C25.0933 77.8133 28.08 78.56 31.44 78.56C34.8 78.56 37.76 77.8133 40.32 76.32C42.88 74.7733 44.88 72.5867 46.32 69.76C47.76 66.9333 48.48 63.6533 48.48 59.92C48.48 56.1867 47.76 52.9333 46.32 50.16C44.88 47.3333 42.88 45.1733 40.32 43.68C37.76 42.1867 34.8 41.44 31.44 41.44C28.08 41.44 25.0933 42.1867 22.48 43.68C19.92 45.1733 17.92 47.3333 16.48 50.16C15.04 52.9333 14.32 56.1867 14.32 59.92ZM110.329 43.68V88H99.0488V82.4C97.6088 84.32 95.7154 85.84 93.3688 86.96C91.0754 88.0267 88.5688 88.56 85.8488 88.56C82.3821 88.56 79.3154 87.84 76.6488 86.4C73.9821 84.9067 71.8754 82.7467 70.3288 79.92C68.8354 77.04 68.0888 73.6267 68.0888 69.68V43.68H79.2888V68.08C79.2888 71.6 80.1688 74.32 81.9288 76.24C83.6888 78.1067 86.0888 79.04 89.1288 79.04C92.2221 79.04 94.6488 78.1067 96.4088 76.24C98.1688 74.32 99.0488 71.6 99.0488 68.08V43.68H110.329ZM127.059 38.4C125.086 38.4 123.433 37.7867 122.099 36.56C120.819 35.28 120.179 33.7067 120.179 31.84C120.179 29.9733 120.819 28.4267 122.099 27.2C123.433 25.92 125.086 25.28 127.059 25.28C129.033 25.28 130.659 25.92 131.939 27.2C133.273 28.4267 133.939 29.9733 133.939 31.84C133.939 33.7067 133.273 35.28 131.939 36.56C130.659 37.7867 129.033 38.4 127.059 38.4ZM132.579 43.68V88H121.379V43.68H132.579Z" fill="black"/>
<path d="M150.72 28.8V88H139.52V28.8H150.72ZM172.986 28.8V88H161.786V28.8H172.986ZM203.731 88.72C199.465 88.72 195.625 87.7867 192.211 85.92C188.798 84 186.105 81.3067 184.131 77.84C182.211 74.3733 181.251 70.3733 181.251 65.84C181.251 61.3067 182.238 57.3067 184.211 53.84C186.238 50.3733 188.985 47.7067 192.451 45.84C195.918 43.92 199.785 42.96 204.051 42.96C208.318 42.96 212.185 43.92 215.651 45.84C219.118 47.7067 221.838 50.3733 223.811 53.84C225.838 57.3067 226.851 61.3067 226.851 65.84C226.851 70.3733 225.811 74.3733 223.731 77.84C221.705 81.3067 218.931 84 215.411 85.92C211.945 87.7867 208.051 88.72 203.731 88.72ZM203.731 78.96C205.758 78.96 207.651 78.48 209.411 77.52C211.225 76.5067 212.665 75.0133 213.731 73.04C214.798 71.0667 215.331 68.6667 215.331 65.84C215.331 61.6267 214.211 58.4 211.971 56.16C209.785 53.8667 207.091 52.72 203.891 52.72C200.691 52.72 197.998 53.8667 195.811 56.16C193.678 58.4 192.611 61.6267 192.611 65.84C192.611 70.0533 193.651 73.3067 195.731 75.6C197.865 77.84 200.531 78.96 203.731 78.96Z" fill="#0009F6"/>
<circle cx="127" cy="32" r="7" fill="#0009F6"/>
</svg>
